# xmcd
#
# Track frame offsets:
#	150
#	15443
#	33338
#	48765
#	73799
#	89577
#	106482
#	129862
#	152917
#	166030
#	182743
#	195532
#
# Disc length: 2747 seconds
#
# Revision: 1
# Processed by: cddbd v1.5.1PL0 Copyright (c) Steve Scherf et al.
# Submitted via: audiograbber 1.80
#
DISCID=910ab90c
DTITLE=Austrian Blues Unit - Chilled
DYEAR=1900
DGENRE=
TTITLE0=Chilled Right To The Bone
TTITLE1=Rug Cutter
TTITLE2=You're Doin' Me Wrong
TTITLE3=I Need You
TTITLE4=Standin' Here Drinkin'
TTITLE5=Blues Locomotive
TTITLE6=Bad Luck
TTITLE7=That Ain't Right
TTITLE8=Back Into This Life
TTITLE9=Why Get Up
TTITLE10=I'm On My Way
TTITLE11=Whatever
EXTD=
EXTT0=
EXTT1=
EXTT2=
EXTT3=
EXTT4=
EXTT5=
EXTT6=
EXTT7=
EXTT8=
EXTT9=
EXTT10=
EXTT11=
PLAYORDER=
